<?xml version="1.0" encoding="utf-8"?>
<!-- Generator: Adobe Illustrator 23.1.1, SVG Export Plug-In . SVG Version: 6.00 Build 0)  -->
<svg version="1.1" id="Camada_1" xmlns="http://www.w3.org/2000/svg" xmlns:xlink="http://www.w3.org/1999/xlink" x="0px" y="0px"
	 width="19.3px" height="15.7px" viewBox="0 0 19.3 15.7" style="enable-background:new 0 0 19.3 15.7;" xml:space="preserve">
<style type="text/css">
	.st0{fill-rule:evenodd;clip-rule:evenodd;fill:#FB8500;}
</style>
<path id="Path_12" class="st0" d="M6.1,15.7c6.2,0.1,11.2-4.9,11.3-11.1c0-0.1,0-0.1,0-0.2V3.9c0.8-0.6,1.4-1.3,1.9-2
	c-0.7,0.3-1.5,0.5-2.3,0.6c0.8-0.5,1.4-1.3,1.7-2.1c-0.8,0.4-1.6,0.8-2.5,1C15.6,0.5,14.5,0,13.4,0c-2.2,0-3.9,1.8-4,4
	c0,0.3,0,0.6,0.1,0.9C6.4,4.7,3.4,3.1,1.4,0.6C1,1.3,0.9,2,0.9,2.7C0.9,4,1.5,5.2,2.6,6C1.9,6,1.3,5.8,0.8,5.5l0,0
	C0.8,7.4,2.1,9,4,9.3C3.6,9.4,3.3,9.5,2.9,9.4c-0.3,0-0.5,0-0.8-0.1c0.5,1.6,2,2.7,3.8,2.8c-1.4,1.1-3.1,1.7-4.9,1.7
	c-0.3,0-0.7,0-1-0.1C1.8,15,3.9,15.7,6.1,15.7"/>
</svg>
