<?xml version="1.0" encoding="utf-8"?>
<!-- Generator: Adobe Illustrator 23.1.1, SVG Export Plug-In . SVG Version: 6.00 Build 0)  -->
<svg version="1.1" id="Camada_1" xmlns="http://www.w3.org/2000/svg" xmlns:xlink="http://www.w3.org/1999/xlink" x="0px" y="0px"
	 width="19.3px" height="19.3px" viewBox="0 0 19.3 19.3" style="enable-background:new 0 0 19.3 19.3;" xml:space="preserve">
<style type="text/css">
	.st0{fill-rule:evenodd;clip-rule:evenodd;fill:#FB8500;}
</style>
<path id="Path_13" class="st0" d="M9.7,1.7c1.3,0,2.6,0,3.9,0.1c0.6,0,1.2,0.1,1.8,0.3c0.8,0.4,1.5,1,1.8,1.8
	c0.2,0.6,0.3,1.2,0.3,1.8c0,1,0.1,1.3,0.1,3.9c0,1.3,0,2.6-0.1,3.9c0,0.6-0.1,1.2-0.3,1.8c-0.4,0.8-1,1.5-1.8,1.8
	c-0.6,0.2-1.2,0.3-1.8,0.3c-1,0-1.3,0.1-3.9,0.1c-1.3,0-2.6,0-3.9-0.1c-0.6,0-1.2-0.1-1.8-0.3c-0.8-0.4-1.5-1-1.8-1.8
	c-0.2-0.6-0.3-1.2-0.3-1.8c0-1-0.1-1.3-0.1-3.9c0-1.3,0-2.6,0.1-3.9c0-0.6,0.1-1.2,0.3-1.8c0.2-0.4,0.4-0.8,0.8-1.1
	C3.2,2.5,3.5,2.3,4,2.1c0.6-0.2,1.2-0.3,1.8-0.3C7.1,1.7,8.4,1.7,9.7,1.7 M9.7,0C8.3,0,7,0,5.7,0.1c-0.8,0-1.6,0.1-2.4,0.4
	C2.7,0.7,2.1,1.1,1.6,1.6C1.1,2.1,0.7,2.7,0.5,3.3C0.2,4.1,0.1,4.9,0.1,5.7C0,7,0,8.3,0,9.7c0,1.3,0,2.7,0.1,4
	c0,0.8,0.1,1.6,0.4,2.4c0.2,0.7,0.6,1.2,1.1,1.7c0.5,0.5,1.1,0.9,1.7,1.1c0.8,0.3,1.6,0.4,2.4,0.4c1.3,0.1,2.6,0.2,4,0.1
	c1.3,0,2.7,0,4-0.1c0.8,0,1.6-0.1,2.4-0.4c1.3-0.5,2.3-1.5,2.8-2.8c0.3-0.8,0.4-1.6,0.4-2.4c0-1.1,0.1-1.4,0.1-4c0-1.3,0-2.7-0.1-4
	c0-0.8-0.1-1.6-0.4-2.4c-0.2-0.7-0.6-1.2-1.1-1.7c-0.5-0.5-1.1-0.9-1.7-1.1c-0.8-0.3-1.6-0.4-2.4-0.4C12.3,0,11,0,9.7,0 M9.7,4.7
	C7,4.7,4.8,6.8,4.7,9.5c0,0.1,0,0.1,0,0.2c0,2.7,2.2,4.9,4.9,4.9s4.9-2.2,4.9-4.9S12.4,4.7,9.7,4.7L9.7,4.7 M9.7,12.9
	c-1.7,0-3.2-1.4-3.2-3.1c0,0,0-0.1,0-0.1c0-1.7,1.4-3.2,3.1-3.2c0,0,0.1,0,0.1,0c1.7,0,3.2,1.4,3.2,3.1c0,0,0,0.1,0,0.1
	c0,1.7-1.4,3.2-3.1,3.2C9.7,12.9,9.7,12.9,9.7,12.9 M14.8,3.3c-0.7,0-1.2,0.5-1.2,1.2s0.5,1.2,1.2,1.2c0.7,0,1.2-0.5,1.2-1.2
	C16,3.9,15.5,3.3,14.8,3.3"/>
</svg>
